<mxfile host="app.diagrams.net" agent="Mozilla/5.0 (Windows NT 10.0; Win64; x64) AppleWebKit/537.36 (KHTML, like Gecko) Chrome/135.0.0.0 Safari/537.36" version="26.2.8">
  <diagram name="PÃ¡gina-1" id="Wk3r-ZlyLg6hV_R3POsk">
    <mxGraphModel dx="5220" dy="5875" grid="1" gridSize="10" guides="1" tooltips="1" connect="1" arrows="1" fold="1" page="1" pageScale="1" pageWidth="6000" pageHeight="3000" math="0" shadow="0">
      <root>
        <mxCell id="0" />
        <mxCell id="1" parent="0" />
        <mxCell id="mMpXwVdOlRor9XYbpblZ-1" value="" style="shape=image;verticalLabelPosition=bottom;labelBackgroundColor=default;verticalAlign=top;aspect=fixed;imageAspect=0;image=https://upload.wikimedia.org/wikipedia/commons/thumb/9/9a/Visual_Studio_Code_1.35_icon.svg/768px-Visual_Studio_Code_1.35_icon.svg.png;" parent="1" vertex="1">
          <mxGeometry x="1900" y="-2091" width="270" height="270" as="geometry" />
        </mxCell>
        <mxCell id="mMpXwVdOlRor9XYbpblZ-2" value="" style="shape=image;verticalLabelPosition=bottom;labelBackgroundColor=default;verticalAlign=top;aspect=fixed;imageAspect=0;image=https://upload.wikimedia.org/wikipedia/commons/thumb/c/c3/Python-logo-notext.svg/800px-Python-logo-notext.svg.png;" parent="1" vertex="1">
          <mxGeometry x="2459.79" y="-2690" width="309.79" height="340" as="geometry" />
        </mxCell>
        <mxCell id="mMpXwVdOlRor9XYbpblZ-3" value="" style="shape=image;verticalLabelPosition=bottom;labelBackgroundColor=default;verticalAlign=top;aspect=fixed;imageAspect=0;image=https://upload.wikimedia.org/wikipedia/commons/thumb/9/9a/Visual_Studio_Code_1.35_icon.svg/768px-Visual_Studio_Code_1.35_icon.svg.png;" parent="1" vertex="1">
          <mxGeometry x="3992.5" y="-1475" width="275" height="275" as="geometry" />
        </mxCell>
        <mxCell id="mMpXwVdOlRor9XYbpblZ-4" value="" style="shape=image;verticalLabelPosition=bottom;labelBackgroundColor=default;verticalAlign=top;aspect=fixed;imageAspect=0;image=https://upload.wikimedia.org/wikipedia/commons/thumb/4/4c/Typescript_logo_2020.svg/800px-Typescript_logo_2020.svg.png;" parent="1" vertex="1">
          <mxGeometry x="2459.79" y="-1482.5" width="290" height="290" as="geometry" />
        </mxCell>
        <mxCell id="mMpXwVdOlRor9XYbpblZ-5" value="" style="shape=image;verticalLabelPosition=bottom;labelBackgroundColor=default;verticalAlign=top;aspect=fixed;imageAspect=0;image=https://static-00.iconduck.com/assets.00/flask-icon-1594x2048-84mjydzf.png;" parent="1" vertex="1">
          <mxGeometry x="3235.8" y="-2740" width="280.2" height="360" as="geometry" />
        </mxCell>
        <mxCell id="mMpXwVdOlRor9XYbpblZ-7" value="" style="shape=image;verticalLabelPosition=bottom;labelBackgroundColor=default;verticalAlign=top;aspect=fixed;imageAspect=0;image=https://cdn2.iconfinder.com/data/icons/whcompare-isometric-web-hosting-servers/50/value-server-512.png;" parent="1" vertex="1">
          <mxGeometry x="3940" y="-2770" width="380" height="380" as="geometry" />
        </mxCell>
        <mxCell id="mMpXwVdOlRor9XYbpblZ-11" style="edgeStyle=orthogonalEdgeStyle;rounded=0;orthogonalLoop=1;jettySize=auto;html=1;" parent="1" source="mMpXwVdOlRor9XYbpblZ-5" target="mMpXwVdOlRor9XYbpblZ-5" edge="1">
          <mxGeometry relative="1" as="geometry" />
        </mxCell>
        <mxCell id="70z8Uy-ITdOED8XtoCTG-2" value="" style="shape=image;verticalLabelPosition=bottom;labelBackgroundColor=default;verticalAlign=top;aspect=fixed;imageAspect=0;image=data:image/png,iVBORw0KGgoAAAANSUhEUgAAARgAAAEYCAYAAACHjumMAABe2klEQVR4nOy9C3xU5Z3//3meM2dmcr+TcA8ECFAVFCo3o7haRFsFVrqy292qu+2CK1trq2tluyva/aut7Fat/sS1u2pv4pYtsKiolYpFAS0IKIY7CYRLQu7JJJmZM+d5/q/zzMl9ZjK3M+dMmPfrNa8kcznnSTLzOd/b8/1SpEiRIoVBpAQmRYoUhpESmBQpUhhGSmBSpEhhGDazF5DCGlBKSwGUAHACGK/frd0HSZKc+mPoe3+Y1AJwa9+oqlrd5z4XgHMAWrQbY6w6br9MCstAzF5AisRCKXVKkjQXwEwA1+lfIxEMo9BEaA+AHQA+UFV1D2PMbfaiUsRGSmCGKZTSMQC+BGCqJElTAUzSb2OSxHJ165bOAQBHVFU9BOALzvkRznlKeJKElMAMI2RZ1iyROwHcZRGrxAg0l+oVVVVfZIwdMXsxKUKTEpgkhlKqWSYLJEm6BoDm9kw1e00JRhOYD1VV3QvgTcbYWbMXlKI/KYFJQmRZXgrgIV1UUvSyWVXVRxljB8xeSAo/KYFJEiil10mSpAnL4kvQUokEH4C9jLHNnPMtKTfKXFICY3EopTMlSdo0jGMqRvOKoih3m72IS5WUwFgUSZJup5R+C8BCvTYlRfS06O7Tq4yxHWYv5lIiJTAWg1I6VZKkbSmLxTBSFk0CSQmMRSCElNpstvv0FHOu2esZ5tQyxp7jnD/PGGsxezHDmZTAWABZlmcC2DagHD+F8bSoqnozY2yP2QsZrkhmL+BShlLqpJT+iBDyKwCZZq/nEkT7+y+XJKmUc34QQJvZCxpupCwYk6CUlkiStDsVa7EM1QCuVBQl5TLFkVS7BhPQU8+pQK610P4XFyRJ+r7ZCxlOpCyYBKOLy36z15EiJDv02ExqU2WMpCyYBKKLy2tmryPFkCyUJGmr5saavZBkJ2XBJAi9vuWw2etIEREtqqpen9rbFD0pCyYB6E2eXjB7HSkiJlezODXL0+yFJCspCyYByLK8CcBSs9eRInpUVb0yZclETsqCMRhJku5MiUvyo1syqV3sEZKyYAxGluXDqfYKw4YWVVWnMcZqzV5IspCyYAxEluVHUuIyrMiVJOllSmlqd3uYpLYKGASltJRSutnsdaSIO5MopWMYY1vMXkgykAzd5WOiYlaZrWJ2WXeH/cIA1bOauXt0596Te3fuO+mK13kJIXfE61gpLMddkiS9p6rqr81eiNUZtjGYNSsX5a5ZteguAPeFWZKvCc09mVc+EBerQ5bl3ameucOaakVRJpi9CKszrARGE5WK2WW3V8wu+xqAG6PZobxz78nnbv72C/8YyzoopZqvfiHViW7Ys9nn832dc+4zeyFWZdgIjGv/ujsBvBKPY/na6+/OvfbHUR9LluWFAN6Px1pSWBtVVSekxt4GJ+mzSNteumeJa/867cP883gcjylueM5X/nT+9IKou8opirJDn72cYpjDOU+lrEOQtAKzZuUip2v/uk0Vs8s2642x4xKwVl0N2pfc+dML5sR4qNQQsOHPjtQY29AkpcCsWbnopjWrFu02okLW13ZRfJ0/vWB2jIc6EZcFpbAyqa0DQ5B0aWrX/nX3AXjaiGP7WmvB3O3i+wXTCyfFeLiUBTP8SdXCDEHSWDAVs8oKXfvX/RTAOiOOr7rb4ak73veuMTEdT1VTFszwxqeqasqCGYKksWC2/fyel4zcNKjUnwI463tXrH+blMAMb86mRp4MjeUtmIpZZSWu/esMa3fAfV64zx2C2hn398rpeB8whaVIpabDwPIWzLaf3/OCkZaL++znYJ6AGeVY30CpN+DwJvX/DQPLWjAVs8oyXfvXGSYuSssFdJ7YHUxc8FFlw5FYjq+bz6k34TAlVVwXHpYVmG0/v+f7AFbF+7icM7jPfQFv3TFw1Rv0ebsqG9+Jw+lSg9aHKZzzlMCEgSUFZs3KRUsAPBDv46qdLXCf3t9dTBeKp9dtPBaPDMEHcThGCmuSCuKHgeX2Iq1ZuWjqmlWL4t59X2mthbf2aDhP3VO8Yuu8eJxTluVcAM3xOFYKa5HagxQelrNg1qxa9FQ8j8dVBd6LJ+DtX+MSjB3LHtt1V7zOrY8hHdJcSpF0tKTEJTwslUVy7V+3FsDX4nlMz4XDUDvCMiJWFa/Y+mI8z61zQm90lWL4kCqwCxPLCMyalYvmAHgoXsdT3e3w1h4LmiXScX9U2fD0rsrGF9dtPGbUFSm1ZWD4kdoiECbWEZhVi34QrwZNnPngOXsoZJZIvwpd/+eP7Ta6GjMVDBx+pLKDYWIJgXHtX7c4Xq6Rr6MZ3gtHQomLZlE8t+yxXS/uqmw0vNRbVdVqSUr1Vh9GuBRFSblIYWK6wKxZuSgXwLZ4HEtzhzznDg3cU9SXlqc2Hv3Kuo3HYiqii5CwUlcpkoaUyxsBpgtMxeyyO+NxHFHjcvbzoOLyUWXDc7sqGx9ct/FYohsEpTqeDS9SLm8EWEFgYk4Li5jL+cPBxEUTlHv+/LHdcenXGymMsSMpF2lYkbJgIsBUgdEbdc+M5RiqpwOems+CxVxqP6psWPXnj+0eFPVfs3KRdt4ZFbPLSrVb9/07956s3bn35IGde0++s3PfyXjFaA7E+numsAaqqibSvU56TBOYNSsXOeMxBUC5eCKouACYNjBL5Nq/biWAJwEEbOpdMbtM3PSNissyr3wgHgG9LSmBGTakCuwiIGKBqZhVllsxu+y6itll18wZyyYpLedzic1eu+tw84Fdh5tf/clv9ocbc1gS+XJ74UwVpf9B+rholsvybnFZs3LR1IrZZSsrZpetAFAS5ik0q2b/tpfueXLn3pOPPv7iuxHHbgghmqjcyRi7i1LLFU1HhebszeJp+DJLw0zuxGguYzRkOPRdJ81QUUt8qIIXB6gbu0knjpOQ5QLJRqrPTwREtBfJtX9dqT7vR7gU7nNfDNw42PLUxqPT1m08NqTIuPavew3AiijWLFCaz8J78WSgh4TlUrxia4t+nod0iyUWDjy+/t15kYgMpfRlAD3xpeEQh8kGxau+MZjGHRG9bhNtw+O0Hu0kaHYvaVBVNS/VyS58wr6sbnvpnvsAHO43hpUNGmiX++Dy8h8NdSw9NX1jZEvthXk7oTTWBHrI/VFlw12auKxZueg6fV5SrOKiMbNidtmQe6QIIbmEkEcopVV9xQX+7f1xWIY5aNbJP6mF2KlMFOLiAccO0oHHpXp8SzqHG2xVPbdbbadxr3QeL9BGHCRu+MCxjGVjs28cVrAc2Lnl9tdGQnVKXCIjrP+2a/867cPy8sD73TUHA7ko1cUrtoac2evav+67AH4a4VoFXPWh69THInMUgOuLV2zdoa/3BQNGt96deeUDAeNGlFLN5Qs611pzkQhJvg9XIZfwujpWuEIan5AurLadRxvCs0YqeDr+wzcSWfq17Be0RQhTkvKKoih3m72IZGLIGMy2l+65PZC4REvFrLJMAI9E+3qlqSaguHxU2fDk3rqsPdteEi02496oSueFNSsXHX78xXc/7r6DELKAEPLAUJXImgWTbAKjicsz6kghLvXw4XmpCb8jbfCCYwZ34kaWgcncgcnc3vOaNsJ64i/biQs7SSf+zFaF1Swfd7I8/BXLEc97mjagkySdVRePJmSXFEO+41371+0PlgGJxoLRh6a9HcVahbB0ntg9qN6FyM4WW3bxBHth6fsJyNa8nXnlAzcTQpyEkCcAfDecF2nikkyBXs0tet03FlP1eMsdthrh8mj3/4daghtYprhfc5e0+7XbLTxTWDZ9YzSP03r8QvK/RzRX6Qm1WHz/HG3Ec1KTKb9bDOTpLThShEnId/xQdSrUmR3o7pBpvIrZZXMjWF8PnDG4awZX6kqZhQ1p42YusxeWbkpQKvjGHb/8zkOEkJ1hiotbc5045+sTsLa48U01V4iLZrl803ZWCIj28wZlrBCX/yNt+LZ0DptIm3j8t7RVWDrLbGfwZdtJEaPR3Kl/YoV4zjcS47gsgr2a5SKOz3KFFZREuHw+X2pMbIQEdZHCqVMhUVyRoxUYtbMJzN024Pw2OErK3yCSbVOwuhYDsE0eX/Skw26DxxswDtSXFs75Ms75jtuRu3A5zzPKdYsL26kLr1L/BfrbLE981awPTSg0cdnsGyfuE8Jhq9Ofly+yS+P1GI3GNDjQCYZVtvP4vlrgf44qCSFaLzVjMc8Sx/u5bzSukU8JK+hhtSji7FQiOQx35r+RugsA5nHOU8V2YRIqBrNgqBcTSQ5wZ3DR0UUrKoHxNZ/vfxp7GtLGzgSRbDMTKC6CnKw03L5oBn7zxr5gT6nmnK8D8F/dw9FHQz5yNU9L5DIjwgOGh4m/ukBzY7Ih4RwUbCCtwi36F7XILwRSLW5kmXhYLcQTUgOa4cO/+0ZiN+kQr53H0kTc5t91S+UUvEKQruJOPOErxg9tdSLztMk3DkWwYRHLxFbajloouJMn9N8YEU3wAQS5muVKCHmOMfZ8qlvh0IQyQa4Z6sXEnj74zuA7mbFm1aLF0YgBV9xQO/t3pbMXTQSxieCiKRWyX7v+smAPrWeMTeCcP98tLhrPor62PczMixkcJB6cIz6M5jYRK9F42FYnalc0C2QWT8P3pVq8RV34ns0vMs+rI1FLVJEpWs79wdt7WIEQpyPUK4TqmzxPWC6aiCzj2VjIMtBAVHEcjZv0WM5u2mXibz80x4in+9tCAGsppVsppdZVRIsQVGDWrFpUOuSLHZmB7g71R4945zTnHO7z/XuA2/JGQ8ooiPRQgY/vi67KdOHVk5CT1S+G8Dbn/HrG2D8Ge00W6IaoTpYADhD/B/zLupV1GG5heWiC8201DweIG0tZlrBcNEvst7RNxGK+rovRRD2TdJUeV9GedwvLwk+oPyX9O+J3b2/Tn7+d+AVmln6+48SDBgzpcppGgLVplvhhQshKc1aUHISyYIYUGCLZADrIywr4Ot09iniIGnO394u9UGc2HCMmxSXl62uthbf+VFSvzUx34Bu3zoYexL2bMXYz53yHdtgQL/s42rUaTRVRxNdpukB8Qv3GVwXP8GeUaCtW2y6IQO4vfGN6hCUdFOeIIjJC2q0Fqrh/pm7xZIAKS0e7aYI1TxeUg/rx8yAJwdJetZN2mvK7h4Pm6gWghBCynlK6iRCSVBHrRBFKYAKaJ4MOIA/6u+bWbbh1YYCnTo1oZTpqR/9Upi13VDSHGYSvvQGeuuNgno6oj3H/XdfjmqsmLmSMhbtpM6r0fCKohV9gNItF44z+gequcdEe1x57RmrEBtraUzj3NG3ADbZqf9qZNmKp7Qx2kg5RwfvvagkeV4txFj4st9XgCaleuE8VLF3Ec3bqcZvubNJBYt0kTX1o62opIWSrvvcsRR9CCUxYnfCJHDDyf1+A+8rDXlUf+k4EILITck5xNIfpB2c+/xgTzkQXvCBVwUNSXJCFa2ZN9IT7/DJUHtEtHstRR/yWRzb8e6bO6BbNOD079JRagu2+CdjqGy9K/rXntYPhZal/WUgDUfFt23mRRdIsH+17TVi04x0mHrRBxQx0WzH+P10FyxBfT1l4U+Qp4h0qc3QjIWQ/IeSmBC0pKYi58ovaMwLdvfSB5VPG9L2jYnZZxBYMV329FgahcI76UtTr7IZ5O9FVva9fiwel8Uwsh4x0UZbsiOYZEID26FW2DlAhDNfJVcI6+ZF0Ubg6EAEIj7BEAnFKF6jXfWPxiTIR/+0bhdUsPnEzE9jDGPuKvq8t5JgKQsgGSul94XoAw51QAhNW3wvqCCgwGrf3/aFvU6dwETu1uf/KKmXkgTpj/595L54QWam+iO0HatQBxkkRPt+SAhOKMVwWMRLNYrmMO9Gdbs8O8fbpfux7Ui2ulk/hb23nhQtl5UxaCN4BcJYx9jDnfPkQz80VniOlcR0gmKyEEpiwPnHUmRXw/geXlw9shRmxBeNr790UF2vWiDMVnvOVQYew+YaeVx2Qf/qrmWMief4edFiyYVGxXhLl0y2SYj0Wcw6KiLf8k1oo0s7pnIiKXM0FmsodmMEGxzZvYZk9rtXDaqEoopvIZWRxKs7TnZEp5H53rNs10h63KD1jSjjn73DOp4URT1tFKd0kPONLmFD/0bB6j1J7moiNBGBm3YZb1/b5OdxGTz30DfDaMmMTGKXxdD/BGnSutrqIj+lrrYXnwuGIBOZjdFpSYPL0D3sd8X/4uytzuz/8u0mnqGfpruBN1986z+ubIbtZwXLwH+pI2EDEzmntNo07sMk3Hk+yYnH/W7RdPLeC++uouoO70+K++T0+lKGy3xwkzvkRxtjNYXRkXEop3Wjs6qxNUIHZufdk2N3w7QXjgz300IN3fOk6PUUdkYvEPL0pSykjv7uoLiqUlvNQ+lcCDwq0qp0t8DZUh9W3hXMGT90xePzD9CP9VFhSYLrrWLrTsZcNyOxcw9OFhfETXzGuZmn4LWkV8ZdC2LDdV4odygR8qEzAWnWEeH4tfLiD5YjgriZMi2xVogveYbjFhkjNwtGEyQPWk026kQV1t80k6P+LMXY35/xbQwTuZ1JKqwghQ1bGD0dCCUzY+y1sOSWB6mE0nA8sm/j0mlWLIt4e0DcIay8K2V4mJJrr488Y+WM5bq/a8vzWwL+bsHJazoU8nggSn9gNX8uFaJdkyZaL3fuAPtEraufp1oX28zmiiOreP/gmiPaXN8jV+JT6d1Yf0Stc8yAJsWnT62B+ItXjQ9ohthhkg2I+zxCZp+3ULybz9eOfIorIPGnu0lRr7kUKeUHgnP8XgJFDjKcpJYRsvBQrf0O5SF9EcqAQLsxMT93xFyJaldge4H/jEpsjWMXwkDC3a1BbzftfPJi54YOzQesVvPXVovhOe23PWlSfcNe8F0+g6/T+qNPaEC5ShyWDvFf1VPB6hFukiUd3a4VvS+eFbNQTn6iB0VjOsoX7o1kyGhv0TZL/TVtE3GYeS8e90gX8UKoTu6lXqXki9vJb6i+avEXfItBtvVxl3X1aQ15oGWMtnPMbRYgtOCV65e/t8V2etQklMIciOZCUFbxsRm27GEWRnd9VoY4A+53CebXPK/rV9M0YvbStCpt3X7CdOO9Ca4cS5IWqyCp1nd6HjqMfoOPYTnSe+EgMdVOazwVqExoRH6PTpY8xsRQl8O9B8hKOtdJFcZ/289U8TQjOf0vNwo3SXCDt/i+IR3SmkwgRmaGXqD94Xkd8WCafweW653iG+ER1cAlk3GE7639cHNf/f+3ek3Q9t6R7hGdQH1aogHP+BWNsXqiuhnrl768opZdMQV5QgdEbXIfdw0RKzw9qaWhX/L4WQTh0p41J4Dqb0K/lDJ4LR/pZGr//tA7/+svKnp+/ON0W5sGGTKtGE1MJdaUzjYfVQuGqfEK68J6+V2i1mi+smV8Tf8C2gqcLkTmtB3/zOMUj0kXh5nxCOkVMpQ0Mb5N2fF8txEu+UbCD4J+kWuFqzeDOnjjNc7RRuFijuQ03WDP+gnAsmL4wxu4B8HSILKxTxMwvEUtmqLzgj8M9EKEUztHBa87UrsgagXWLgxS8ziYonrOfD9p9/c+v9vf49p2IT2OypzYejUZgLNl6MRuS2PGs0d1tTrM0XveNhUogLBbNuvG3bxghgruzeFpPVmgTbReFeXeyXPwty+vpKXOL7TTe0S0VTVy012si1n2OJ9SSngpiCxJperGWMXa/9icM8RznpWLJhBSYzCsf0D48H4Z7MCI7IWWNCPiY6oqwPSLV33CBes6EwNtQ1a+Np+YK3f6jPaip798O4P2DFyNbT3DC/vt08wzqLWnBaKxQc4RFoVkW90rne+pdfuIrFtaNJiKaYPw3bRZZpKt4Go4ok3FQKRMxG+32sFokgsGaIN1hqxGWy9UsTfSAmcYdIhbzE73x93LdDbMwEYUKumGM/Yve8TCY6d5tyQzr7NKQlU2Pr383ojy+vTBwylqzKCIJjlJdWAI2tQqCr7V2UNn/S29XYdfhxkHP3X24aZDoRIGmZB9F+qJn/X69JYfij4aMzb7xwsrYTjvE5kaNm3gWtvlKe2IyP5EahNAstFVhtXQBL0ktwiLRRGmqfBzfsJ0VLpXmOmkWzUvq6B5xuUU+jUPEI7JL31UtvX2g5VnUR9tUysUYewbAD0M8xzncs0vhlE6+GckGPWpPh72kPGBnO8/5wxHPBwq3/qV7d3Rf3j9YjxfeCNqOYeP6N0/OG2pvSahTArhr3cZj0W5etGQ9DPx9a4TFoonMq7RFiMYpeMX9L/lGiazQrSxLWDSagLxHXT27qbvT0JrV802Wi1/7xgiLptstWqWPPJnAZbyljBepbQsT8+53vfNdKEumO7sU+0Y7CxLuXKS1kY4a8V484c+6DMA5dgak9KEFW3Nz3DUHkTZxTqCWEP3QLKOuU3/qVztz4rwLFQ98EOwlBzjn8zjn7roNt0Y75mRD8YqtfxnF6wQnMf3lgcPZrIbmJmkujuYKZXGK59VRg9yZc1D0Whm/dTqV2TGHp/e0c+jm32kDXpL8cTHNckkCcdG4vwyVT8fjQPoGyFDHOsAYuzIe57IS4UbW9lTMLvtaJOX+1JEJpnSBe/u7IZoFY8sqGvL1nKnwtZyHvagsZHMp5u2E+8wBcF//rgn3Pn8A1XUBGxi9zTn/Snc7y12VjftWXDd2UoR7pd5e9tiu+2vqI4xc92EO0ueOgX3ItqRmognAfJ4uqnGriCL2IGlWSBthyOZUFNdlQxKujyY82m0i7MJa8YCJVPYG2oInpQa8qwd5l6vZ+Jk6MhnEReP+GFykfnDO9xFCmvSJpoE8hxJCyFzO+fYYrGrLEXZbuDUrF925ZtWicBsr9eA+dwiqq38MJBwrhqs+UX+SUX5d6OMHmM30r7+sFDUvAWjhnE/jnA+Kf9RtuDXcWdlPFq/Y+nAYzwvJd1B0530oivjvaRav0mbR5LsvmiVyA8sUcRvNcmknTFgyn5BOUbDXdxb1aG4TFpBFq3UD4S5DZdyjz5TSnw4x7uZpPQs1LAhbYCpmlTm3/fyelyMdWM99XrFvp6/IEMkO57gZIl4Tiq7qfXCMuRw0QBxGdbeL0v6B4qXx+gdn8d0XDw68ey/n/NZA4qIxf3qBc/70gpseXF6+VG8k3q2A2qfqxJbdF4488T/H1p5t6IpL7CSdk8w8SGE19bIKDUQN2v9lKPI47dkgmQyogK+W+MLa8BsmbyuKcg+ATErpj0KIjOZrPqDHbqzbpDhMIm5sG2rSYygGxmSkzAI4RwftzC/QBETKLu4Xg+GcwddUIzYmhuLq+/7QL0vEOb+Scx5TBa0sy1H97ilSqKr6A8ZYT12Z3sohaI9qzvlSzvmWhC3QICK+pOzce3J1NG0f5aIyOEZOE/OMoNfFiOZPTA36GlvOyJ6KXu2rr7UW7up9Q4qLxpK5Pb17aznn18cqLjoxu0YpLln61Uvp0yeCvicJIesIIRE3abMaUbXmd+1fp13Fd0fRqkBYIN6640IsNOS80bCPCN4UTggMAdxnDor+ueFy6HQbvvLwTu1KsIpz/mKk6wyGLMsXoultk+KSpkVRlLxAD1BKq0K0MmnhnI/sO18r2YiqPvvxF9+trZhddmT8qPzbhpgOOQhCCGyZheJGKBX1K9znFlknQvsvhyluKA3V/n1FA7JEIFS065Qy8kS7CM3aYZ2tPW0Z8rNk+FS+ec+RRs3qiFufRkmSNHG9Il7HS3FJsJYxFqwg8xAh5C+CfI6cevP9Nw1en2HENFwoFkumGxFTaTkvWlk6Rk0T86Y1lOazg1otaND0XMjZxZA0gZL6/0+44kZn1Z/6blCsLl6xNfpmMgGglK6UJCmpBtmnMBW3oighs1GU0qUANoV4yjLGWKhd2pYlph1muiWzY/yo/KuidRs0i0ZKy4aUWSRqZtTOFnhqj8HXWidG00q6oNjyx8IxYjLk3FGi+Xegwfua4BCQvmnrXM333VXZGDBnHQnzpxfkrvizsqkzSrNKPj3Zelusx0txybCDMfbLUE/Qh+lnEkLmB3nKUr2qOOouZ2YR+3hEHdf+deHWkQREc4c85/w7nm05xbBljYi6TWZX9b6+8Zqni1dsjbquoG7DrYsBPNE3e3TTD3eF3+4hxSXNwOxRMAghTkLI4RDxmLf1PsBJRdz2yO/ce/LNM+ebT+jzjyKu7+CqAjmnBHL+WGHRDIzHRIItp0RkqfStA2MAvLCrsjHsmoI1KxeVrlm16L4XH1vxCme+1czd3s86G1uYht/tOh/1+lJcOnDO13LOa8J4qvb+fJ0Qolkr+QEen6RZ+5zzoPtfrEjcLJhu1qxc5FyzatELZu+z6d7LpPNo8Yqta8N5nWv/uiV9u5Ixt0t0txvIlavfR31r2EMdU1yaBM0eBYMQcgchZEOwx/WSix1xWV0CiHuXn537Tvoef/HdLdqHtGJ2mVs3+RI+5Y7KTuFi+eMxfOauysZXa+q7gua5K2aVlVW+9c//AWBtv4i+JIsB/Fzpv6eq8nQbDtcMmy0jKYwhVPYoGEcJIdkAAjbKJ4SUcs5fjc/yjMewNmI7952se/zFd98B8HzF7LJG/Q+W0ME3kjNLpLeZ2+Wsqe88tKuycdD+Afitlty/vu3LnwK4ZmC6UAShMwv0KuTeMvmGdgXbDwSfs5TiksetKEo0MRPGOX+HELIwSDymlBBCksWKibuLFIyKWWWZFbPLFlTMLptbMbvsrkjnJEULUzxwn/0M3Nv5RvGKrbcOfHzbS/fcWTG7bP1Q4ue5cAS+PsPZjp5txw9/cTjo8zs9asvBU609lZo5GXLmlNGZl9kk0nMepjJ4PNbbbtLe2omsnOiarUdKV6cXaenRz7wyCqdTBqG9H4+B/88wOKQoyj9Ge35CyHWEkKAiwjm/hnMecbOzRJMwgemLa/86TZ3fT9T5+vSLyStesbWlzzo0oXs5nGMMiOmEw5HiFVunPbB8SumDy8sf0TNs/USsq8uLczWBR9mayYfbD+HKqychI8tYg7O1uQPNje0onWS9wujxEwohy4MM/BZ9N33YvapjgVIaqg9TUmSVTBEY+D/cO3WXJCGIMa+1RzcXr9i6DH7L5amK2WUPhPt6zjncpz+NZLuCr7P65BtSRuZiR1FxwE+qZsGcOmmcm+XzqWhr6YSrrQsuVxc8XQo8HgU+pf/+L5tNgmy3wZkmIy3dgeZGFzIynZh6+VjD1ubu8uLAJyeRlZ0GR5odXR0euN1eKIoq/i7dEALYHTJk2Yb0TIdYX3ZOOjKz0iDZjNudHURgutGEZvNTG4++uG7jMUP7K1NKtQvxwgAPaabvXzPGXjfy/LFiZiv37IrZZYsTdTLqzAT3eaYyj2vLu79++Inxo/L/IZLXiy0OGfkBu/QFOyVzu6cyr8cm5wTufaOZ4E2NHZEsIyw0YTl1rBZHPq9BfV0rWls6hCuieH1gbHC7Be0+TXS0D317W5f4vrPDg5y8DDjTjHFfzp5uQEuzS5zT1d4Fj1uB6mMBW6pq93u9PnS43MLquXihBbXnmkAlKqysUA3JoqWgKAshDqtdMGYumF74rQeXl2PdxmNGpo5PE0ICZWQ1dV0O4FVd8CyJaQJTMbussWJ22XcSeU4pIx/Xzp58I5WdfxbN64lkC5hRCobqagdTvLBlZgWt64mXwGgfTM1aOVN1EccrzwmhCER6hgPZuRnIL8xC0YgcjBiVh1FjClA80p9N1T7E3WiWTFFxjrBw4okmXieOngPvI3bjJhRh3MRicb7c/Exk5/jFTXbYxPM0kemLJora+uoutAhxcjjtwgqLFwWFYSc+r3lweflVuyob99bUdxnh71YTQnKDZZV0S+b3Bpw3LpjmIiGG3jJmMjDYG4rOav9eKmfJKFBn4O0o1VUNg1yWaDh6yG+tBEK7yo8a2ysioTj4p5P9xGnchBEYNzHwKJpoYIzh090nhDvUjbauydNHh3yd1+NDw8VWnDvTIARlIJQSEcvRfs94MGlKcaQvOVC8YqthPXUppcE+K9oVYSRjzJJWjNkCM9QmL8vRdfpTYcUMBVN9cNf459yHEphmtxOMR/9vqD11ClVHT8Pd1fuhy8zLR/7IEuTkZYl4hd0Z/ugXV1sX9r2/C0z1i54sS5h13ZeRlp0d9Rr7cvbYSRw/1LuJVVvn5XMuFwIRDiIW1ukV1lpLYxuaLpyDu6M3Lqa5dROnTURuycio18h9XhRmRSX6B5Y9tmvZrsrGuE+MIIR8gxDyqyAP79ADvpZr62CqwMAvMs192lNaGs586DweXmZQ7eyA56K/500ogQlnakIwPvvDOzh7pHdiZXZhEaYtWIiC0bEFZys/3IHqzz7t+Xnyl+eJWzzYt20L6qp6BWbWzbeheELwfkBDofp8uHDiKI7u2QlPZ2+T9yv+7CaMmRrdJJAoMoZ9iWnaRChC9Y6xagc8K7R2PwFgttmLCAfvxaAzlgahdulvdkJAHMEFhKsKEKHAeDo78PmO93Cx+iTSc3JRMnEySiZOQm5x9FftbtobG3Dmi/4frngctxtnRla/n08f+iwmgZFsNiEkIyeVo6GmGnXVp1B78ji+2PkHtDXUY8qc+bDJCa2zWV634da3i1dsjXu1Lef8ekLI/kAXZELIKisKjBW6MEc1mjPRMMUNX2v4u+Xba/3NyKksh85yhGgZGghNXP742itoOn9WXKUr7vgmps6riJsIVB3c1+MedRNPgbGn9bfkNFHoay1FiyY0mlBdcf0iLPrWvUJ0teMe+3hXzMcOhM/jRUdjK9yt7WDurp7WrvpF+5UHlk+JeyEp51xzvYJNolhMKQ2UzjYV0yeOV8wumz1+VP61Zq9jKLz1J8OqgeGqipZDR9Bc04hzx5vQ3tIFn+KD7LDD5hh8JbXllITtIikeD47/aTeKJ07G5QtvRP7I0ZrZHNXvE4iqg5+i6sDefvdp4lg+N37lSq7mJtSf7t+ep/FcjRCx9CDp/GjQLLriCWVob2pAS+0F5IwoBpXCe7urbXWDRuFwxtFe14SLx2tw4YtTaDtXC+LtAvF0QnW1QWlugtLeLpqdCXeYwPf6B2eNyO7U6mnrQN7HQn2fkmViMaZbMDv3noznaAhD8LXW9vQQHgr3hYtQXS7k5NoxrjQTkg1orDqPkx99hra6pkHP5z5v+OvwevCla/8ME2ZcBUd6RkS/w1DUVZ3A4Y92DKpDcWZmxfU8mqUxEM1iOrh9mxDQeJJdOALT5l8n4keqMjjzFAmaqJzZdwSt5xtACTByfD6yctNEGp3aJFDZBgIGT1093OdqMH9awfK4/SJ94Jxr/muwSuJSQsgSI84bLaYLjJXUNhBK4xl4ao+G9VxPQyM6z/YW4tlzMjBibJ7IkHDGcGbvYTRWD3CzePjtgtOy4pPJ6QtjTIjLoQ/eEz9rFot25TcKR3r/PU6Z+f60sqezE3987WU0nQ+7kDHC84YvyH3cHTCfKv5vTWf8F5i0TDtGT8jvt0+pL5JThtrZBW/9xVK9WVnc4Zw/qccuBxGkKM80rCAwloQpbtEZz9sQXrfNrvO1aD92UggJxBvNDluGE440GQUje4Wh9nA1lC7r9JHRXKJ92/6vJwMz/vIrMWHGrJ7H420p0QF9lCfNmgvZ4Z/2qK1h71ubRXDWTPq6wtoFoa/lmVuYGVRcuqF2G5S2VnCmPmHE+vQpA8FS1gsppZYZd3LJCYzmAnjOV4qG4krLeVE0p/nbPleDcIO89afE7uuuqj+FFXNhioKO0zXoPNPr6VFZgpzde6XuNqXF+RnD6b2He/bb9L1aJpLWi3XY/+6bOPaxP+0uyTLKrvqyyLo01/Z26ws3bhEtmkVz7V/eJYKy0N3AXf/7Gxze9YEIaJuJ9j9qPN1rcToz7EjLCC8jpYlQ17nzM+dPLzCkBINz/usQ1v+mRLdGCYYV0tQJhXW1tvja6+PyT+c+FW2Hj8Pn6hUizRd3FuUMem56ph2temsGd1sHOppakVWUJ2prEonq8+HU/j/h5Kef9MsWXXXTrSga57/wDcwiGY1mJV21+FYRwNZu2vmrDuwTt1jqWWKl+UwtfH0qjgtLwndRCaVQO1yYMyF96q7KxrhviOScnyCE/DjIbuuZhJDrOOfvxPu8kWIFgUmo0vra698AsBfAD6PpHazBvF501V6E+0KdyBp1Y0t3QM4K3EfF7uhfTetu7RACkwg0UWm+cA4XT1fh4ulT6Gz1Z0gycvMxanI5xn3piri7QtEw+cvzMGL8RJw+dAD1Z6qEy/TZH94R6eaRk8qFAGbmF8Y1cxYItcvf0L2hqo8lRwnszsg+LpqbrHY0R7znIFw4508SQv5O7zvdD0LI8pTA+ElYMxBVc4NazvuKV2x95oHlUw4+uLw8mp406y/+8U91tnS535XDnpspBCYYNnt/V8PToe/3iSDIGyltDfWi0ndgnUl2YRHK51b0WCxWImdEsbBaNFGsqfxMpM6130O7Hd3zoQh0T5hxlah5MSLoLdD/J31jZVSKUtQ4N6xKnXPuJoRsDDJIfzmAbxt17nAxXWC+97WRpT5XA6S03EGD1OKJr71ebFTsZt3GYzsA5M2fXnDngumFiwFyDcADbaGtBnDgo8qG93ZVNr65buOx6oN/X+DfP0W0q5RmtaSJVGU0RJKmDgftg9nR0oSWugvCApAdDvGBpZJNxDuy8gsHFbsNpGD0WOGqQN9TZQaSzYbSK64St672NnS0NIs9R6qiwOvuEsKpCaVm0WTEsX6mO02vKr4B64lOYDgGt5+IJ5zzDYSQQAKTSyl9hDH2qKELGALTBUbtaJqqdjSByE44SsrFoLV4wzwuv7gMsBbWbTym+QrP6DfUbbh1Zt8y7OIVWwO3LGT8oOSQl9rzsobMKHQzsL7EKDNf+2BmF44Qt3jQd3+PEXRnkEKhWSqGWSsD6B5RLMn9PxoD20WEf8B4rCrE4Tn/WG+tGaiKdy0h5BnOuWk7rU0VmAeWT3ECuAz62Fd3zUH/vOnMQtG7RUqL7U0lZls3n4OvuTfDs+toa0Ow5xev2BpWz9WMccVuauNhi4uG4u0fOLVn+q0IHuFWgURgs/d+6H1KfC0szRrpixxin5bZZORno6PJv15VZaKaN5L/uXZRIVQKr0IzBjjn9xNC/hTk83wTANO63pmapn5wefmKgSNNmKcDSuNpuM/sR+epj8WM6mjwNp5B16mP+4mLxq5D9QELlCIha8qkPTxAZ7hQKO7+JndmgZ5pSnAWKRw016MbxR3fOsiBqWej0+CxUDCxt0eN9v/u7IhMbJlHgZydGV7zoBjgnGsXxg8DPaYPcjMN0yyYOUi3cYU/ROTgVwTNqvFePClu1JEprBsiO0DlNO2dCSL5MzOc+UQsQ3u+JlAiCxDkg8vBY04ZPrXx6J5756S5oCphtT0Tb05Xb8AwsygPjszEdO2PFkmWe8rr689Uxy0g7Hb1ry2yQvaqL31jYtnF+UjLyUBXq18Um2rbkZ5hD8uK4SqDnJPn3n3iVMwXtHDgnL+hjzoZyEJCiFMvzks4plkwc5BxWcffnJrq+2Do5k3Q4yi+trqe0n3P+UrhUmk3z7kv4K07DqWpBmpHU1BxIZJ8YN1vj0Td6KObdRuPueXsnEPMG97+lqaLrp6udTaHjNKrp0dkapuBvU//Gk1g4kV7U6+H2tdSsgwD4nSFfawYxetDR3t4VdgcBM6RJW/vqmxM1HS+7UHuLyGERD0zPlbMtGC+qn11v3ARdEszpPmZkGdngJYOHfSLkpan/vd43BoBfXLW+96sgpy5vvY2UVwXDFerG616313JJmH05f17nzDFmAuLu8uD9rZONDW0+StSG1rFvqOBFI3IE71s8wuzkV/YWyDoSE/viZdUf/ZpXFoqDCQjt3cEs9eroLXZFXK9smxDbl6WWG9OXiaKio2vI8ouKUTJdAUXj54W62ppcIlq3mBZJc1aZT4VzuJiX4hNiXFHc5NCBHufALDBjH1/pgnMXGT09ABg5xWwjc1QNjZDvi4L9jsLQdLja1xJ6bnrn9rw+ZF4HW/X4abtC5aX/9DNGbzNrQFrYLxuH+rP+fvkOjLSMHHBFYOyE/Gipbkdn+07jsOfVeHw51Wor4uu//QVsyZjxqwpcPqMN267vAT/99sPetYdDSPHFGLG7Ck9644VPkDwNUuzcMIo2NMcYje19j+tOdGAMRMLBtU2QRRhKkgbMwa2zKxDxSu2GjrSJAD3A9gf4H7NipnJeezhgUgxxU7/Dopy70NRTdCZ1TKBbXYGbPMzIc1IB7HHtEztSvLcssd2/Us8zdX50wtsm/51/lbO2GK1wwWltVXsS9L+ooqXocPlQWebB2m5mcgozBX+fEBxkezImBRZO8oOVxdOHKnBiaM1OH3qgrg11MU/E5kuc2Q5OXIcEF9jHUOkeYnNXQRtbgKXB/Co8X/7jZ84UojOxMmjUf6lUoybWAK7PfyexPr8rICPeTvdol1DR1OrEJL0LIewZmw2Ij5K1G6HPTcXUnoGPqps+O6fP7b7mTj+amFBKf28OzPbF875Dznn/1+i12OKwJzE9O8C+Gk4zyVFNjjvGQFpeujisOAHoD8ovmOLIaZq3YZbcwFUxdpTOKP8urCe19nhxoaX38H2tz6J5XRRIVFgfB5DQTpHNOGjqiaCi67Eh/w0V+q2r1+HG265OqyxJqEEJgJantp4dIJeZ5VQKKU/DVLZa8okyIQLzByk2/4L42rSQCPaIkAnOiBfkwnpyxmgRUNckQit/uiLi5t3VTa+um7jsUjmCUfM7/513iMLpheujeUYoQRGs1b27TmMvbsqhSuhKOamtR02jhGZHIUZHAE8hH54fMCFdoKGDgrVuB0RYaEJjeZCVdx4JaZfMTHo87xNNVDqw++9HABNXG42euJjMAghSwghmwM85OKcj0100V3CBeY7KJp5H4oC+YnhIRPYl+TBvnxQgE8Tkh0AXg23YC4ePLB8ivPB5eW7Y5nvFExgDn9ehfX/sdEQ9ydWNKGZNoLBEcQoqHcRnGqyZjeQaVdMwMr7bw8YJPY2VIs6rBhYW7xiq2nl+YSQXEJIsADc3YyxYD19jVlPIk+mcQ8KVz6AEetjPExtGSrj14k6Rh5YPqXkweXlv4121rZz3JU9VcuqynDsi9N483c7sf+TmE11QyEEGJnFMDqn121yK8DZVorGTmun4dMznJh33RX4ytfmYmxp74bnGAXmlWWP7frHBKamA0Ip3QQgUIHdEcbYtESuJeHvgg8w+eUxkGNt67ejDJXXx2lJcUEXmcPRxGOcY2f07MH65X++ibc3G9MJ3yjS7RxfKmbgHPi8lsLjs7a49EWWbVj9gzswe9508bOn7hh8LeFPj+jDK8Urtt4d7/VFA6V0ZpBsEjjn0zjnccumDkXC67S/hxFP2kGi6sPSh1efRX3gjYgmoV+1Xl0wvbAEwBWRvNaWPQIHD5zG+n/fiE8+/MK4RRqEohK4vARnWwm8BmSGjIQxhj1//Bxnq+swbkIJ0kmnqAaPAM1/fXLZY7v+paa+K74bt6KEc949eSDQxe5DAAl7kyX03UApzT3OpsZjQPiyMlQGCmRZgroNt2rm6WvhNtN6c0cdtmyJucA4RRz47r3zMX1S2IPvTQ3ohoJSqr3/AlXwPs0Yuz9R60ioBfMqH/fQONjjMRzqmWdRb9lxJ+s2HtNM0NcXTC9s0htqBbTYWts8+MXrlXh/x8nELzLOUMkGbmDzrESx/+B5qCrH+LHZsAUu/PEB+ONHlQ1Pv/5BzV+u23gs7nOo48QkQsiNAe5367OTEkJCLZg/YFLVeNhj3jVXhsqkssP1PjOP9A281dZ14MlnPkZnl/V2U0fDhC9dgaovPjN7GXFj5mUj8A9/1y8xqLlCrzy18eiL+gXE0hBCFhJCAnVsbGGMJaZXayIF5jKklWzBhKiiZwNJNoHpRu9/Uzo107Zi997z329o7ArbFrc6t35rNf7wP79ER1ur2UuJG5Mm5LqLSvNWN3jZ9l2VjWd3VTYm09Ugl1IaLBxxPWMsITHMhO1Fmg7HjDgdyqom6ZCs23jMXZ4plR/PsgXqBJ/UTLhsBua0tQqRGS6cqGpxnqhqWb3lgue/zF5LFLTodWGBQhJL9McMJ2GVUFmgUxN1LqtSniktmZpli7UGyJJMufJq3PRN03tMG8HMJSMd+wvspNzshURBsE52CWvfkDCBmUrSoq50HQ7o4rI5kVMUEsWIseMxZnI5yq+6GqMnJePncEhmXlNg32D2IqIg2JpLCCEJGSmRMIGZw9MnxelQplZJRkN5pjR3uFouGn/36FM93182r8LUtRhI0lkyjLGWYDOsASRkml3CBCYfUrwEJmjTbitSninNnJpl2z0cLRcNzWKZs/i2np+vun6RqesxGM2SSbYLRTCBGTSszQgSIjBjiL2UDtMPWCjKM6WSqVm2l8xeh5HMuenWfj9fuXCRcJmGMQuXjHRsKrCTpMgAhtgWkJCYaEIE5gcoXui4xObsl2dKTt1ymW32WoykYunX+/1sdzrxnaeHtaZqLL2mwP7PZi8iTAIKDCEkIQKTkDT1NO4Ir6PSMKLQTp8CYL3ZrHGkoPwKnGlowZkPPhj0WO64iWg5E1NfFauzeslIx5EtFzwJq4qNkmAV7wlxkRJSsBavCl4dy+2kHsiSkY67ALxs9jqMpEsF3m8OvjVgpAO4Mmv4W61H2n3zjrpUy+1F6oYQUkoICdTw2M0Yi7JNZPgY/g6YDEdmHMUFVg+WLsiXbwDwgtnrMJrT7tD7juo8QKNi8NxUCzA1y/aU5g6bvY5gcM6DTZZ0JiJVbbjA3IzsWFszDMSy/0yNQgf9N6uvMVY03ajuCv0cTX4+beO4BDTmmqlZttfMXkQI3Hq3x0EQQgyvTUtEDKYsAecwnQI7sV1TYH9JTGQZxigMqGqjuJ6lYSK3owQ2pA+4TrWB4RwUVBEvLnZ4MDpz2KvM0gX58p0fNSlWjcccCNLSdQ4AQ9ueJEJg4h1MsqR1UGintwOItVOf5bm+Mwc/6wrfKFVcHD9OO4MmKZn2CUZOoYM+CcCqAhOs2ZDhF8NEROHiKjDnoFguBqOnpH9g9jqMZpRix00dke30lznBPzSOQp5q2oy/RFGyZKTj/QI7seIFMFgQ2vBUteECcx+K4lXBi+3UhaW2M/E6XNzQffBhvdcqS5Vwb9NoZLDIe5TlqzIWt+cbsi6LsbDQTu8wexEDYYwFExjDL9aJsGBiCvJqvvyrtAV/ZavBvdIFtBMGWZbj0RUvLizIl78apIP7sGJZwUSksejfLrNYDhZPnQpKh3fqWrNkLZpVCriHz+hMkuF26yl4MyfCHvHrthMXNtF2vEcD/l0sU8BW6KAPmL0Go/mbv/8qblo6H+p5F1zrP4V7a7DtLYMhWXak3TYZGXddgb8pTEP9j36FfbsPG7pek5k6Ncv2wlGXaokJA31oCDKqOaappENhuMDcIp8udIBgHJeRBwnF3AYbiP7VjwccDURFA3yoJ6rIPmj3hcASO1qXjHSsDNLQZ9jwla/NxeKl88X30qhM5Dx2LbIenAvfiWaoNW1CdFhjF7hHFc+hWXYhKrYJOZBKc2ArzQVx9LpVmlg11LWIedrDmLvKM6VfHXWp281eSB8aglyYDRUYwyt5ZVmuMsDi2KEoiqnVvOWZUunULFugCslhw/iJI/Hof6wKa6ZzpKxZ/dxwF5nNWy54lpm9iG4ope8Huhhyzhdzzt8x7LxGHbgPRux5MD2gWmin95q9BiO5esGXDBMXjZX33y7mRQ9jvrZkpGOx2YvoQ7D5w4YGehMhMEa8Q3MpjWx4frwpdNBvmXl+I9Esl3948C8MExdxjrKRWPef96Ow2FAL3Uy0P95rFgr4mjLg3FCBMTjbk5DdoAMpsBPbkpGObUb7rmax4PoZgywX1esGZ/GZeaQqvcMP0zOceOixu4SgDVNyC+3078xexBAY+j5O5pyhKVsQCu30GgBWMn3jxrU3XhXQcvF0tOHYe6+j8eQhMDXyilzV60HtoT3Y//ozYD6l32Ojxhbh8edWY9rlE2JevxWxkKXrDnJ/UmeRjIyVmGLBTM2yfcOM8xqJLNtwx92LcPPSBQEfT88bgaLyq1D10Rs4/cnv4czKgyMrF/b0LEh2J+yZOT3P1awdTVB8ni54O9vhbm2Eu60JaXkjUP6Vv4SclhHwHKt/cAd+9+s/4P2394p50cOImUtGOu7YcsETrMN/QtDnVSf8vEYLjGHqKEnSZSa9EZebcVKjyMnLxEM/GtpNyR9fjsyCEhx5dwM6my+KW7hoAjX5hq8HFReN3Lws/O3qJRg1pgi//M83I/odkoD15ZnSlqMuNZgVMWxJ5g0ilyX6hEtGOp4YLrEXSimuvuZLWLrieowtLQ7rNZqlMvWmv0LDic/QXHMcXSFEhkgSMgtHoaDsMhSWXR72uhYvnY+RYwvx21+8h6rj58J+ncXR3jM3ABh2yjkURgtMvKY5BiLhArPlgufhJSMdM4dDDOavvrU4qEsUCntGFkbNWCBuXlcrGk4eQntdTc/jkt2BrOKxyC+dFtJiCcWMWVMw/fKJeO7Hr2Pv7sqojmExHgVgpaK7hGGoUybLcsDinjiyTFEUQ/tZDKTATpyFdrpkapZtVTJW8c699nLc9hfXJU3mRhOYtzfvwuHPk66mUXOHNh9p9z131KV+ZPZiCCGPEELWDryfc76Wc/6oUedNZhdJ406jG+YMpNHL3Y1e9fWjLvX1JSMdC/Xeu5bZGxWMwuJcfO9f/jpphKWb2fOmi9v2tz7Bfz+3xezlhEv1kXbfsqMuNWAnuUuJZBeYxYSQXM65KUVEWy54dhTYyZW6RbNUd52sUlglmHb5BFz7laswa+40ZGQa3uPZMG645WpcMWsy/vjep+LWUGfKvzwUZwG8caTdt/moSzWs9D7ZSFoXyQGCb7N8nFM9i/8HzZb5h+qBYNObT2mWyt+s/OqwrS/54+8/Fdmmzg7TEzO1AB4+0u7bYOUsUcpFCpMZ3IkbWQYWsSyMh4w96LjGSgKz5YLn4fJMSfuHLZiaZbtRrwWaa3T2yeG0o/xL4zFl+nhcfuUkTJg8GpKUzHWUodGssnnXXYFDB07g0P6TOFp5OlFZp2oABxo8bE+Dl33Q4GUHNLc5ESeOEVMs66SxYCpYOtayERjN5YEP7SlD5bx4nMNI9OyT5kbdEc9WhbPmTRMxinnXXmHo3qFkQLNmPvj9PuzbcxiHP4trUHgHgLcBvL7lgqc6ngdOFJTSlwP1jDbagrGkwGRxisncjsvgxEzmxNU8DYXBjS33M6if8Czqg81/sRzlmVKuXolcqHkzunWTu2bVooVNDW0LmdpbQOhIsyMrO118X1ScJ6puc/OyRIHcqLFFJv4W1sbd5UFTQxvq65rR2uJCh6tLCJD2t9XuH8jhmsbNO/eePKD3TXEBOK1ZKw1eVpskFkpIQgjMXZxzw5qVW+aSN5rbcCPPxA0sA1fz9Ehe6rwPRQ89i/r7jVtdfDnqUlsC7W69/Rs3kGRMfVsRZ5pDCHC4Ivz4+ndfObrjWNKkqZIFQwXmNpbllvoYSVmgyOZUBGg1i0Rzd/I4RTFsyEbkzaRPES/eIu14nbauIir5cYgpdilSDEWr2QswmGClFAF70sYLQwXmJ2rJx0ZUvbaD4XGpHptoj6nrJITcZKSplyA0X/8RsxeR4pKi0ciDG+0ixa1Y4TDx4BPShd2kE7tp56CevZIkLWWMJbvApDAPQ6/kFiBY9wFD40tGC0xMlYyapbKBtmADbcM5ogz19KWyLOcqimK5CqwUSUGD2QswmGCfdUPDCoYKzDOoP3IfQgfZPGBogCoE5Bzx4TS8OE68YrLAqaFFZSCvEUJu5Zwn5ZzSx9e/e2DNqkVmLyPF8GT4xWCeRX3ttSTLrYCLIp9PaJe4vx2qcHnOwReOZRIJiwkh13DOd8TzoIni8RffbUkJjGkkfSo6GJTSoI3fOOeGWm6Gp6n/0lZzFkDcxscGwgGCa1i6SHP/GctYeRWOJqXApDCPx198dzhnIIMVdhq+GTMRteRnjTz4CpaDD5WJeF4dhWUsGzmQVpzEdMvvbg7BcH6jpzAH0wQmEYV2cf3ATOSyKMS7ijmxkGcEq595fw7Sv/wxOpMxcDdsTXULM9wTA3OC3H/Q6BMnQmBi3ruRDYplaja+yXMD7UUKROlvUPp3Zaj8caznTnFJMNz7tgSrRUt+C0ZV1bOSFF6VbhanGA1ZWCnjuIwp3IGp3IFIhufXw4e3qAsbaMtqyuirjLFkczmCzRBOkSJiCCHBBhT6GGOGxyoTYcGcCHTnaG4TYjKDOzGTOzGVOcTPsbCJtuFxWo92IjYLjpEkaRuAeYyxZHI7hnvBV4rEEiz+YmhstBvDBeavWO7Jv2cFPT/nQUJ6HGPLp6FgB+0Q4nKEeAY+PJMQch+AlKuUIhQfmL0AAxkd5P6EtJ0wXGB+haYTjxowX/scFDwnNfXdjxQQSulaSunriqIkSx+P4R5wTJFYgpWIDA+B0dmsN1uKmk4w7CNdOEjc2Ek7cRgeeAkP56VOALsppTcyxr6IZQ0JIiUwiSeZXOiIIIQEFBjOecDQRbxJlMBsiVZgPiGd2ETb8RZtH7TBMQJKJEn6OWPM8p3vUpjCHrMXYCDB5ocNH4F5BvVv34ciX6Dz+cBRBx/qiYrzUFBLfGIvUveeJD1gGw/myrK8yefz3WPlvjE7955sqZid+Ln+Pq8bFw/vQ3pBCbJHjgeVEnPt8Xa0w1V/FpwxFEz8UkLOeYkRzEU6moiTJ+Rd9Czqa51UOqEQf0T7CDxoI6oRe5GGYqnNZnMrivKXiTxpJJglMDa7E7njJuPwtl+CqyryS6ei5LK5Yq60ETTXHBeC1l53Rvw8Y/m9hpznUoZSuhBAZpCHjyRiDQlrmflTqfFAPJtdx8ByWZZbfD7fo1a2ZMxAE5MJC76Gqo/eQFP1EXGTZAfS80fAkZUHe3qWmE/tyMwGtdlhc/jnLNnsDkh2f9N6n7sLqs8LzhmUznaoigKfpwvu1kYo7g50Nl2Eu61RiJhGWm6hOGe0Y2bjwePr3x2uLtKdQe5/m/PE9BlOmMCoqnpAkqQViTpfCLTfeZXNZitRFGWZ2YsJgKkBx/zx5XBm5+Hou69B9XqgKh4xe7rv/Ol4IdkdmHLjHaaKC/wbHYdrkHdQk2+d1xO1gEQOzrFaOfZSWZa3EULKzV7IAEy3qjRLRvvgZ4+aABBjBk+MKL8SVyxbabq4DFcIIcFaNPg45wkbt5zIqQIfJ/Bc4bLYZrPtADAt1QmvPxkFJZhyw9dRf+wATn/8btyOa8/IwaTrlxkW24mCZKmPipQZQe4/kchRywkTGMZYiyRJbxvRBDxGSgBckCTpAVVVnzd7MVbbKlA0ZaawZBpPVaLlzFF0ttQDPPJyAe0Y+aXTkDt2kggopzCc2UHuT2i8KdFzkV60oMBoOCmlz1FKl6uqukwTQxPXYmiX92hwZOZg1BXzxM3d2ojaLz5G67kqEbQd6nVFk2egaMqVIt6SInEQQgIKDOc8oaGKhAqMoiibZVk+G6LDudkslCRpN4AnOef/yzm3lDVhBZw5BSidf4uoW/F2tosbOBP1LIRSEVMh1AZnVh5szjSzlxsOpse84o2+gzpYDGZvItdixmTHDwFYIZsUjKmSJL0CYBWAm1OxmcBoYuIQKescs5cSK8Mug0QIWRFi2P2+RK4lkVkkgaqq7yX6nFEyV4/N/CxU02QDGK5BxxSJQROWh4I8tj5R9S/dJFxgAGw34ZzR4qSUrpYkab8syy+bvZgUhjCsXCQ9PR2sfUHC25YkXGAYY9X67upk4y5ZlrtkWX6NUrqEEJJrxEnU8+1uX1XKK0sUno/ODjcX6YYg9x/RP3sJxQwLRuN+k84bK5r5uUKSpM02m61KluW1lNK4Cs2Pt+6ubbrzDbCGrngeNkUAOl7cj5bV8avxsQKEkGuCPGTKKB9TBEZRlOpEp8sMQBOWRyRJqpFleZskSY9QSm8ihBTGemDe7kXbk7vBPWp8VpqiH5p4t/zgfbjW78cedCTj5ImA6FZ1QIHhnH+Y+BWZk0UScM53hChnTiYyASymlPat79GuFq9qrmC0WSjP9mo0nW1D/qu3gjjCa5qeYmi8ey+g+dvben7+GJ3DphSBEPJIiN3TbyZ4OQKzXCQkoqO5iSwE8DKAZlmWj2sWjizLP6OUPkQpvZ1SupBSWkopDZZKFNWWvqNNaP7O71PuUhxQ6zrQ/uxetHwvmXIMEVEYYnPjK4ncHtAX0ywYAO9wzjXVNXEJCWFSd9OfQONbJElq0TeCtnQPwjrtU0rG6/OflE/Oo/4rryF/wxLI5QUJX/xwQAj1ve+ANQ4Wah8lQNx6mpkHIWSB7rYH4tEEL6cHM21vH/x/mIWXgMiEwqnPQZqqWz4Lr2PpueMHzILyvH8GUDnk8nwQOeUyhYPy2UW4nt2L9id2g3f5Aj5nK22/5pjNNx+Ai3OekC5vRkAp/UGQ6t0PGWM/NWFJAtNcJPjdpEcTXfiTDBykg8aviKuv9mFpue/3IgicIjTtT32MpjvfgPutk0M9VbPiF0uStFmW5SrNdU3MCuNOwJ7XnPM3Er+UXkwVGFjgD5BsePfWov6r/wPXSwfAUkLTD/W8S2SGGr76P+j8TXgDJNrQL1NXqhdV/pRSarU+QUGhlD4Rwj1KCQyPYvv/pYxmwXT8v09Rf+2v4Hn/tNnLsQTdwtLx4n4hNOHSPjgAo31QvytJ0gFZloMFTS2Dnpr+QZCHd3DOTR3VY2aQV8A5f5Mx1kIpzb3EYzE9HI5g/13Lg3+A/cpiOBZNhHPxRNCs8Od4JzPco0L5/CLc75+G552qgAHccGCqCsZUf+M+SvsmHZwAXpZl+Q5VVX9s4aznN4Lc7+acm17QaoVoYSchJA3ApR7s7aEINixj2eE9mftdA+/OGnS+/JmomdEEZzijWW2tP/wAnS9/Dt/n9UEDuOHwGlpQB0X8HcE4/JlNCvS+FSdRSu+SJAmMMcuNmKWU/kRPEgzkQ8656SOTLfGJJoQ4CSHHJUmyap+YhHI1T8MvfNH/KUiWHY6KsbDPGSVuUnFy971l7V5RIKfsrYVn5xmoNe1xO/b1OCHGEA+CEBBK/F97L3w7VFX9IWPso7gtIAb04s6tgTwRzvlqzrnpHRotITDw/7F+Sin9bsqK8XNEmRy3Y9lnj0T6XZfDsSC59Nt3tAmuFz/1p+gNIqjA9IFIkl9s/Gj+6z2Korxi2KLChFJaFcR60QQmz6ziur5Y5tNMCJlDCNlD+/vBSYudk3BnZwckngLTjWbZyJcXiYI9W3k+pNIc2MZmg6TLcT9XpPjOtEE92QzlaBN8RxuhVDaAXew0/LxzcAzNCGPPl27RiPem//35yld86Q+/xVtNafdACFlCCAnWlWAtY8y04rq+WOqTTCl9nxCyUBOZZEZzcbI4xXYaumdtKIwQmGBoFo48q8T/9fKihOx9EnGjvRfg3XUO7ndOGX6+YEzB4YhfQ22SEJnvq4Utncx3/bOoT/jGXUrppiC1L9WMsQmJXk8wLCUwhJBSQsj+ZM0oOUBwr5qPIm7DD2114VwXg7JbmYg8k2Lw0qhMYe1Q7TYiQ1g4tMDfX1cqTgek3gsALUwDsUvwgMPuZf32TbHGLpHtEV87FbCLHWDNHqgXOyxTLBiNwAgIgVOS8HN19Nn3efu/HUTXf32MzuijzRGgx142BWqLyTlfyzm3hPUCqwkM/H+8lwHcFWjfjpXRLJZfqmPEB+0OW+xTELcrpRgN812XcHmLtOMWnmX2MiJmCjkS1RiWbq5GOn6F8dq3T5ah8uF4ri0QekLkQrDCOs75BM65ZdquWs4X4ZyL4BljybMDbSp3YL06Snx9gVpu6khC2Ee68AkxPmYSTz4hXSCaNRaDtfwJOvEz1GvfPnAS01+bg/Rg7SrjxTdCVO2utZK4wKIC84FegWj2UsJCE5XNvnGYxdOwibZhB43Ph6yBJFezqePUG1PMySw0V7w7phItP0MDPkanDcCK36B0U1wXOABCyOogD1VbJbDbF8sJDPwic7f2GVNVFVYWmkIu4Sc+f1HbYXiwVroYt2N7YN3fOxD18GEnSS6B6bsPiUixfRT+Ez2N8ea+RybtH0HkYKNbo4ZS+kiweUfdlr/VsKrAaGber8xex1D8XB2NKfBPLPyF1JJ0ohBPqoiCUyR0PYnVOEJ7A83CkpGj3zmzEx34HVrF9xO4febXkfu2hPg1hte7P64N8ZRn4nWueGJJgYFfZNYDcDPGLGnF/K2aK9wj6L78myR+1aUYvMvX0pxC7wd1qKI1qxOLJfMILuAk/K027uZ5JdPgqKLAfXFZFyHfD/KQT3PNrFBUFwgrC8zR7jkuVhOYbFCsYvnie00IVtvOx1RUF4h2kjxB7r7xomSKHbUHEHFCqajcjQbNgn0VTeL7PNjwS4zPzYb0tASynwQPzA6JPvjvr4M8/CFj7PVoj200lhUY+DNJmkm4RxMYq2SVsjjFS77RyNZrVDbSNrQZ0HPx17QFDUhIWUXMHCa9DbIGuonEaYdz4ZfFTZ5qjfovbY1P00a8SgNf9MW2gCiLPd9EG07pVoz2HlkJ0eZ0JgV5nwA3RXHIMXrNS0A45+uiWmiCsLTAwP8HfBoWsmJW8BzM4L31Tb8O8iaNlUPEgztsZ5MirhPK2hrx2jqMev8VcRt7+A1kr/yLhK5tIJpor7DVYL3UFPJ5NMr0dTsY/g69dVB3Ir/7YqSJzNsSSEQuE6X03mD7jfRsqynTAsIlGQRmC4C34Z9rbarQaNbLCrV32PvjtB7niHFWxjmi4HvShaSxZKCvuZvCF/4VGUv7DxrMffJ+XCw1ZChmSHzgohjwbtu5fhZXKPzp68jPdQ4K3tQDvg5Q/BLjkNX7UVsngbwQYrxrD4SQuQBWBXm4mnO+LPLVJRbLC4we6L25e4awmQLzvDqqp7pWe5P+QjI+rradduAW+XRSiUw32avuGHSfLTcb7rtuRisSu1XgX6Q6fM9Wi+MksvNGG495Db3vjWlw4qvo6e9j00RDAtkW8ryE5BIinhOsYvdpqwZ2+5IMAiPo9jU1gTFDZBayDLGJsZtNpC1h524Dw9/YzuI94hJX4mSAZKYHfczndqMrQVmyTaQVt9hOYxONLstHCIlKZPahE39Eb+tOzVVy9DeHZkogVTT4LOl/DlGxu4dz/mrEizKBpBEYzYDQzELo2wgSLTLfYDn9ft5EEycw0OtMVtsuYD0NHTuwCtzVifZXBncT0MRl7/qXIBm8DU5zU26wVeNh20WcitBqGYho0xBh0FeTz+/hPDx6AqAMDvw9Bk0VLiUgb0joP+GUUjozRMWuZrXcrH+1PEkjMJxzN+f8egBnkeC9ShU8HfN47xX5YanOtDTyc1ITvmk7a9l9P4W892rfcM+jaH7ldz0/u2pr8fZ3H0BRiyKu50agua6PS/VYajvTLx4UM5REHPRtg4q30Ws5/SMKMXXw7+0EsJv2Bn/LAGwLtFMa/s/BvzHGkkJcYMXd1ENBKX0IwJPorr40uHeMZtZ+qEzsCdKJK6Nsjf1ky1g21qojBpreCUcTvef0TZ6/8I3p50qq4NiDepyE3+KbghzMRVHc16B9mJ+QGgy3LJkSWSzsRmTh/6G3k+AraMLjqAv8ZELu5wRzAKwIcrhqzvm0ZJolZvpUgUhhjL2o98NY2F0fY6TI3MIy+2YA8H9R+vJGoH2Y9pEu3MaycCvLxniT2jtczdJ6bOH0AWKnuUILMAJfFvUgBPY4G82HiFv8T94i7Qkp8iMSBVfDt17/CJeYEjFNN0i+imyx+zrAuBTNPPmpCLHRgBeMs5oFn0zigmRykfrQwhi7PlFZpWUDYi/v0PBn7iSCM0QRFsRt8mnx1Yy6mew+b6M8HjggaocUV3HRXCHNVVxuq8EvaEvCKohFpW9gAQiIF7yfxVIEG/45RIZaOzIJ8J7WXCOrtWIIh6RzkbohhHyDENKzIdKIXr4zuBO/9o2BTf8zvUddWC1diOs54k0xt+EmnokKlo6reXrC3KcrbCfEdomDSpmo/Yg3PnCRYt5JOvAh7cQBuOO+PSMSmM+HSLT8f1GKy9HrOt6Ek6gKkarnovdvz48bGGPfBmCtq1sYJFfbuP58Tggp7bt9Pd4C8xt1DHL7/Im+LZ23/B6hDsJwkLixlbbjN3qdzqw+MRGj2EhbMQYyvsHiW0SnWWTa7/KgVCeqb3fTLlHcqJp+aSQRdcIrhg1z/n/2zj1GrrL849/nnYFdlt7gV2Ch5NcLv5+0sVgaUWgQArFE8AIFIV5opESNEFIuiQo1Epc/EBQQqiWo/EMRlWoUNIogNGwjclktltimS9LIbrh0SttsYUt3t515HvO+876zZ87OzM7OZeecM+8nOdmdy+6czMz7Pc/zvM8F4+NjDiBnmlWVQlSRuGxj5ouMMRRDYheDCSIi1xPRqQBWungMFc+xqZkV3IV5Mh7T6KNDjd2VmAbeB+O+1H7jOi3jTmORLTVHR8Pbcf6vHIX5qH+q5PvIGYHcbo4xvEqjGGqA+zNPKn/VM1q0qnyufl+HFWslgFS5m/kshrE2ENxeiZmmUVWYkGSNisg3q3qBiBJ3gRkFsJaIdiIQj2mEwFwgxcPKnothtzaHtgL61Aj6MN6QWy+iy2U2zuNjsKwBFo4Wl09zbT15h8H4sxrGU2rYtL5oBpuzlQstP5l+o1D2Mdlzza4Z7c8HfPV3rgpLph9jRcFe/fNsdOGVsBVTHN+5XkQ2T/rPI0ysBQZ5UekHcDERPQ5gjsv0rVdkVnKxwLxUxpyNK3ox6UWyQeW34hfK0UZ0uiVtphloC0dbcF0gE7jtgqo45WAFH1O0Pe04BDZzh7QVon9qS2EPssYa1OcwiCPY08R6rmZDiiC56lyl7yGD3wTqFr+Dk3AF3jCWk/kPAXERkQ1R7VI3FVruyTYKpdRNAB4I3K5ZZC7nWbgrNz7fuZ/GTOKWJ48WnnmTXJt2YiyS8Sotpk9l5xfc3xtS75TsJazFNmjJ6M+/v0yRpOS4alfpaSzCokCy3VUYwGsYCQd1Y5fvUo44B3mLEJEdRHQ8gLPs7ZriMfoNuTfXXXS1XpfaY7aDPXm0cGjro9LRyh2eSuTsiJUV3GW2jJdKB55XHxSJoRahH+a6jdtnGoqlduNVVX6tGytGqhMY7Rp9OJCkuw9ZvKTdwkBQ1+a7xCZbtxJxzIMpx0Fmvh5AoQCmlpqlpdKJRTIerNRfgL81aFKAJxrsoxzuSptRI0ZEnszOLypx6MmdiPNsDO7h1FBVn3+1tUovotha+jeNFvkRInKtiLRkHG0zSJLAGJj5Nn0VCNyeksjoK1uQFyNa8+Opjz4awbpUxsSIZkLh25wvRLyaZxsXGbZi/pdUnSFhBKYKa3mrjeV9AMad9C6ep0JqS0ZEVonItI+hbSaxD/KW4HVmXq6U2u2a+rhygmrcpY9KcY3ZdlVdcyJP/HhCDWOJdOIrPAeX8izjPrmdMCNA6TI1Q2VQ6dSktUoZZPEchvEKjeARKqqMv9s2V0sUibNgHCJyZbCkvZrq65miJiSlvYrmbJt6osFP1P7CPCdtuXSAjFv8/RpnXFXjKv2Y9uFXNORuakW6mZkfrOkFI06SBebvAC4EUIjOTSYyK2WG2Y4N4i2YZDNMjK+n3ym00RyDmNv9NfaQmWzsiVC+jurweErdBmZeb4UmcSRWYJAXlG0istqJzGTTCa4Jpbk/qoaaf5KeSNBrYyGv0WjVPXvLQenSm7NiKhkLbroWlAeY+fa6XiziJFpgkBeV3wFYMZnIzJN0YZCao9Y2i5740chabJMeEaq4DokLrOVySxwLGKdC4gUGZSyZ8ISCZaHg7hBydV/JPG0MjS+tdrRcHG0hMChhySC0hb0kZL1Mtfu8xxPE9fFtV8vFkcRt6rJoS4aIVts+Mp0IbGH//wSB8dZL0vlRtrtgubquhcukA5uPjNcLfTn9JvbUUM1tauKMrhRZLhvaxXJxtJXAwFoyRLTV1C8G82RCuXiDvjQg8cxFekLbig4ozAsY9ukay/VKjNe5l5nX1XqucSUxxY5ThYjOtZaMuVzNlRRuxAm4SmabL9V1qbfR60sEEs153GVEphLP0DAOTaGuqsQmgnaFvmvzXBK5FV2JthUYh1LqX8GueGtlLm6UuUX9QTyeaii1Q2nT/xOXoVstiammrhUReca23lysb2+lQ9iFw9ihxiLQltETF0rUvPWLyOqoD6dvNn4JWZRS9wO4OXhfqsa5xJ72ooS4HBCR5XGcAtBo/AqyiMgWItpn3aUZaHALTk/yKJO0+ZiIfCpJLRfqwa+cEER0DhG9FLqv6RMkPfGijLjcwcw9rTmjaOItmIm8BWBjMC6DOjrkeZKF234OuUQZEVkjIg+17syiiV8tFVBK9ZhezcX3JV5k5p8guPTjgss+1ryeugN7Ca8NEB59nvDeofi8n7nchKS7l5l5RWvOJvrE55NtEUR0GRHdHbRmnCWTNKE5/RRBzxdz+PyK6eune+AD4NFehXueVNhzILrvZ6lArq0petB0VvWUJLqfaMRQSj0BYFXovsSIzLIFgn/c07q8nz/2Ea68J3qJ5WViLQdE5BIRebk1ZxUffAymSmyy1FtEtBTAHAT88SRYMz/9Rg4fOqV1r3/6PGDOscBft0UjmF4m1mLmFQH4gp3H5ZmEeK+KFkBE3UT0l2D2L2K+09Rq6yXIGTel8fo7rf1alrFaMgAuYeZENeVuNtGzSSOOiGREZDkRXUNEPa6WyfWYmS6hmSsp0z/2OOSnLnbJ+OTF4GxlV8yXEqA7UNg3EwqzJH+ep12SMQNco8CmBf+D/YP5rv7BUo0xsBk34ngb+WJUMznSzjRys8P3IWeeb2ZIT2H4Wzl3SBt4zPwzAG2fODdVvMDUiIhs1IdS6iEA1wXuN0JTb3xmpigsQYedongUFvFRpjBvsRyNWQ32bI8/MToTGE8+mdFphdBNXyxQY+zZjKkNjKvtxxj2Uta0x3SUGW8zYGMt3h2qES8wdcLMa4loExHdCuDiwP1Fu01aEtzc5+MkhZOQnwNtLAmkcJJ9TFsV4RYCnvpwIo3QxIidGMUvaAi/pffCf6KF5W4AG5MwvrWVeIGpn6yI9OpDKXUBgF+7PjPBIOETvMCMDW0VO2kMwxh3JYLuxw10BKdN8vdfezCFwb31xUY+skBw35rKzZv6aATPpMbnBTnLTTMLakLf5Fq5lXbj9xOFBXbr+ZaGvIjHC0wjYeZeAMuVUtfoNQng/9xjV6pBnC/H4gqZjfMxw8RPqmEvsmbEhRMELQ5jEDO7B4E4RQZZ5EjycQfbwrradhOrkK0oMD9/VplclXrZsoNwxdmMc5eU93X66BA2BEfFlHlZ7ULOsg86i69DqCBGLg6lLcU0yFiIKQGepWEjLE5sLdpKeVxE1idtsmKr8QLTeDLM/AMiWk9Et+mLJYBOLRLP0UFzaJfofj4F5yM//1h/2bWF0adGzLD1fhrDf3C4KKjZShqZAJdtULhnmHjcInN9nCqcZoURwk8D+BIzJ2LYfNTwAtMktO8uIj1E9BgRXQ1gtbNotIh8Vb1prrz7KYfD5Cu2G40Tk1K5LAGLZaOIvNCOneami3gmbsQIEdnFzHeIyBkA7ghONXgbRzAqbK6uJWpcPDXitpvLWC3aYjmZma8VkV4vLs3FC8w0oS0aZu5h5oUicjOA3vBztMjoo4I57ylBUFDc+xdiQETuFZHlzPw57w5NH15gpp+MiKxn5gsBLCwlNG7BlFksHovLOXKCXEKUtZCssaL+LRvA9RbLNOJjMC2EmQcAXGTrmz5DRJ8FcFbwc3GLCAmu4q6WoIhUsPD0e/q0iPwJwGafx9JavMC0nqy9sm4TkTuJaLFN2lsTfmJwgbWL2JQrOixBP4B1zPzk9JyZpxq8wEQMEekXkWuJ6HYA5xLRSgCfCPajQQmxQah3cNyE5+AIsCsD7NqNgls4iajsA/CCDdRuEZHt3v2JHl5gIoqIvAVgk4hsQl4wnGWzyrWLCDy36Kcj6lbOlh2E3u35n1u2Bx+pKCxaUNZ7SyUeeIGJCc6yAbDWxmzOJqIzbduIM8v8TUnRCf++7Q3g+JnAjM58T5Y5x9Z1nhXvW/swcHBUYc8QMDr5dN4B6zpqF/KfALb6bv3xIpqXNs+UUUqtAXCZLbhsSNGTFpplC4HBd1G2DqkJ2+laTP4gIo/4uULxxwtM8ui0ExFOB6DdqlNtBvGp9pjT4vMbtc2bBmx+yoD9fQeAXSLic1QShBeYNsN25FsM4BztZtnK73Oa9HLbrJi8Ynd5+n1HuPbCC4zHoS2fbvv7gtBj88v8zWDotnNpDnhLxOPxeDxN5b8BAAD//1rjOvykZjW2AAAAAElFTkSuQmCC;" vertex="1" parent="1">
          <mxGeometry x="3236" y="-1482.5" width="280" height="280" as="geometry" />
        </mxCell>
        <mxCell id="70z8Uy-ITdOED8XtoCTG-3" value="" style="shape=image;verticalLabelPosition=bottom;labelBackgroundColor=default;verticalAlign=top;aspect=fixed;imageAspect=0;image=https://img.icons8.com/ios7/512/chatgpt.png;" vertex="1" parent="1">
          <mxGeometry x="4690" y="-2710" width="300" height="300" as="geometry" />
        </mxCell>
        <mxCell id="70z8Uy-ITdOED8XtoCTG-4" value="" style="shape=image;verticalLabelPosition=bottom;labelBackgroundColor=default;verticalAlign=top;aspect=fixed;imageAspect=0;image=https://upload.wikimedia.org/wikipedia/commons/9/99/Sample_User_Icon.png;" vertex="1" parent="1">
          <mxGeometry x="1080" y="-2132" width="352" height="352" as="geometry" />
        </mxCell>
        <mxCell id="70z8Uy-ITdOED8XtoCTG-5" value="" style="shape=image;verticalLabelPosition=bottom;labelBackgroundColor=default;verticalAlign=top;aspect=fixed;imageAspect=0;image=https://upload.wikimedia.org/wikipedia/commons/9/99/Sample_User_Icon.png;" vertex="1" parent="1">
          <mxGeometry x="4635" y="-1540" width="355" height="355" as="geometry" />
        </mxCell>
        <mxCell id="70z8Uy-ITdOED8XtoCTG-8" value="" style="shape=image;verticalLabelPosition=bottom;labelBackgroundColor=default;verticalAlign=top;aspect=fixed;imageAspect=0;image=https://upload.wikimedia.org/wikipedia/commons/thumb/6/61/HTML5_logo_and_wordmark.svg/2048px-HTML5_logo_and_wordmark.svg.png;" vertex="1" parent="1">
          <mxGeometry x="2150" y="-870" width="330" height="330" as="geometry" />
        </mxCell>
        <mxCell id="70z8Uy-ITdOED8XtoCTG-9" value="" style="shape=image;verticalLabelPosition=bottom;labelBackgroundColor=default;verticalAlign=top;aspect=fixed;imageAspect=0;image=https://upload.wikimedia.org/wikipedia/commons/thumb/d/d5/CSS3_logo_and_wordmark.svg/1200px-CSS3_logo_and_wordmark.svg.png;" vertex="1" parent="1">
          <mxGeometry x="2800" y="-880" width="247.92" height="350" as="geometry" />
        </mxCell>
      </root>
    </mxGraphModel>
  </diagram>
</mxfile>
